<mxfile host="65bd71144e">
    <diagram id="e9U7AVRLT4sZpBjPCyeS" name="Страница 1">
        <mxGraphModel dx="770" dy="1666" grid="1" gridSize="10" guides="1" tooltips="1" connect="1" arrows="1" fold="1" page="1" pageScale="1" pageWidth="827" pageHeight="1169" math="0" shadow="0">
            <root>
                <mxCell id="0"/>
                <mxCell id="1" parent="0"/>
                <mxCell id="2" value="&lt;font style=&quot;font-size: 24px&quot;&gt;Имеется одномерный массив array из n элементов, требуется найти элемент масива, равный find&lt;/font&gt;" style="rounded=1;whiteSpace=wrap;html=1;" parent="1" vertex="1">
                    <mxGeometry x="70" y="-10" width="510" height="120" as="geometry"/>
                </mxCell>
                <mxCell id="3" value="1. Установить счетчик в позицию 0&lt;br&gt;2. Если, алгорм завершил работу успещно&lt;br&gt;3. Увеличить на 1&lt;br&gt;4. Если то перейти к шагу 2. В противном случае алгоритм завершил работу безцспешо" style="rounded=0;whiteSpace=wrap;html=1;fontSize=24;" parent="1" vertex="1">
                    <mxGeometry x="40" y="120" width="660" height="200" as="geometry"/>
                </mxCell>
            </root>
        </mxGraphModel>
    </diagram>
</mxfile>